<?xml version="1.0" encoding="utf-8"?>
<!-- Generator: Adobe Illustrator 17.0.0, SVG Export Plug-In . SVG Version: 6.00 Build 0)  -->
<!DOCTYPE svg PUBLIC "-//W3C//DTD SVG 1.1//EN" "http://www.w3.org/Graphics/SVG/1.1/DTD/svg11.dtd">
<svg version="1.1"
	 id="svg2" xmlns:rdf="http://www.w3.org/1999/02/22-rdf-syntax-ns#" xmlns:inkscape="http://www.inkscape.org/namespaces/inkscape" xmlns:dc="http://purl.org/dc/elements/1.1/" xmlns:cc="http://creativecommons.org/ns#" xmlns:sodipodi="http://sodipodi.sourceforge.net/DTD/sodipodi-0.dtd" xmlns:svg="http://www.w3.org/2000/svg" sodipodi:docname="nginx_logo_release.svg" inkscape:version="0.48.3.1 r9886"
	 xmlns="http://www.w3.org/2000/svg" xmlns:xlink="http://www.w3.org/1999/xlink" x="0px" y="0px" width="115.119px"
	 height="24.187px" viewBox="0 0 115.119 24.187" enable-background="new 0 0 115.119 24.187" xml:space="preserve">
<g id="layer1" transform="translate(-11.56225,-11.12422)" inkscape:label="Layer 1" inkscape:groupmode="layer">
	
		<path id="path2996" sodipodi:nodetypes="cccc" inkscape:connector-curvature="0" fill="none" stroke="#DA635D" stroke-width="5" stroke-linecap="round" stroke-linejoin="round" d="
		M14.048,32.728V13.663L33.11,32.728V13.663"/>
	<path id="path2996-0" sodipodi:nodetypes="cccccccccccccccscccccccccccccc" inkscape:connector-curvature="0" fill="#DA635D" d="
		M44.688,11.188L44,12.469l-5.313,9.656L38,23.344l0.688,1.219L44,33.906l0.719,1.281h1.469h10.875h1.563l0.688-1.406l3.969-8
		l1.781-3.625h-4.031l-10.156,0.031c-1.321-0.019-2.536,1.179-2.536,2.5s1.215,2.519,2.536,2.5L57,27.156l-1.5,3.031h-7.875
		l-3.906-6.875l3.938-7.125h8.377l1.953,4.008h5.031l-3.172-7.602l-0.688-1.406h-1.563H46.188H44.688z"/>
	<path id="path2996-0-5" sodipodi:nodetypes="cccccc" inkscape:connector-curvature="0" fill="#DA635D" d="M70.014,11.156
		c-1.309,0.016-2.485,1.222-2.469,2.531v6.515h5v-6.515C72.562,12.358,71.344,11.14,70.014,11.156z"/>
	
		<path id="path2996_1_" sodipodi:nodetypes="cccc" inkscape:connector-curvature="0" fill="none" stroke="#DA635D" stroke-width="5" stroke-linecap="round" stroke-linejoin="round" d="
		M97.091,32.776V13.711L78.029,32.776V13.711"/>
	<g id="g3920" transform="translate(0.10586251,0.33010228)">
		
			<path id="path2996-1" sodipodi:nodetypes="cc" inkscape:connector-curvature="0" fill="#EB5E62" stroke="#DA635D" stroke-width="5" stroke-linecap="round" stroke-linejoin="round" d="
			M104.909,13.374l19.085,19.018"/>
		
			<path id="path2996-1_1_" sodipodi:nodetypes="cc" inkscape:connector-curvature="0" fill="#EB5E62" stroke="#DA635D" stroke-width="5" stroke-linecap="round" stroke-linejoin="round" d="
			M124.016,13.374l-19.085,19.018"/>
	</g>
	<path id="path2996-0-5-1" sodipodi:nodetypes="cccccc" inkscape:connector-curvature="0" fill="#EB5E62" d="M70.014,35.204
		c-1.309-0.016-2.485-1.222-2.469-2.531V22.208h5v10.464C72.562,34.003,71.344,35.221,70.014,35.204z"/>
</g>
</svg>
