<?xml version="1.0" encoding="UTF-8" standalone="no"?>
<svg
   xmlns:dc="http://purl.org/dc/elements/1.1/"
   xmlns:cc="http://creativecommons.org/ns#"
   xmlns:rdf="http://www.w3.org/1999/02/22-rdf-syntax-ns#"
   xmlns:svg="http://www.w3.org/2000/svg"
   xmlns="http://www.w3.org/2000/svg"
   viewBox="0 0 1056 816"
   height="816"
   width="956"
   xml:space="preserve"
   id="svg2"
   version="1.1">
  <defs id="defs6" />
  <!-- <g transform="matrix(1.3333333,0,0,-1.3333333,0,536)" id="g10"> -->
  <g transform="matrix(1.3333333,0,0,-1.3333333,-610,1280)" id="g10">
    <g transform="scale(0.215)" id="g12">
      <path
        id="path14"
        style="fill:#da635d;fill-opacity:1;fill-rule:nonzero;stroke:none"
        d="m 3863.54,3423.46 c 0,0 0,475.58 475.59,475.58 h 1426.73 c 0,0 0,-475.58 -475.58,-475.58 H 3863.54" />
      <path
        id="path16"
        style="fill:#da635d;fill-opacity:1;fill-rule:nonzero;stroke:none"
        d="m 3863.54,2815.78 c 0,0 0,475.58 475.59,475.58 h 713.36 c 0,0 0,-475.58 -475.59,-475.58 h -713.36" />
      <path
        id="path18"
        style="fill:#da635d;fill-opacity:1;fill-rule:nonzero;stroke:none"
        d="m 3863.54,2208.1 c 0,0 0,475.57 475.59,475.57 h 237.77 c 0,0 0,-475.57 -475.56,-475.57 h -237.8" />
      <path
        id="path20"
        style="fill:#da635d;fill-opacity:1;fill-rule:nonzero;stroke:none"
        d="m 3703.88,2579.23 v -379.4 H 2174.5 l 985.22,1343.92 h -845.78 v 379.42 H 3909.42 L 2928.75,2579.23 h 775.13" />
    </g>
  </g>
</svg>